<?xml version="1.0" standalone="no"?>
<!DOCTYPE svg PUBLIC "-//W3C//DTD SVG 20010904//EN"
 "http://www.w3.org/TR/2001/REC-SVG-20010904/DTD/svg10.dtd">
<svg version="1.0" xmlns="http://www.w3.org/2000/svg"
 width="1024.000000pt" height="1024.000000pt" viewBox="0 0 1024.000000 1024.000000"
 preserveAspectRatio="xMidYMid meet">

<g transform="translate(0.000000,1024.000000) scale(0.100000,-0.100000)"
fill="#000000" stroke="none">
<path d="M2270 9123 c-93 -9 -223 -35 -295 -59 -495 -161 -822 -569 -885
-1104 -8 -69 -10 -854 -8 -2815 l4 -2720 22 -99 c30 -139 56 -214 117 -341 56
-116 151 -254 238 -343 165 -170 418 -308 651 -356 176 -36 240 -37 3076 -34
2648 3 2790 4 2880 21 274 53 509 175 695 362 186 185 304 409 367 695 l23
105 0 2780 0 2780 -23 102 c-29 132 -55 209 -103 312 -170 364 -494 610 -922
698 -76 16 -291 17 -2942 18 -1573 1 -2876 0 -2895 -2z m2485 -838 c573 -98
985 -589 985 -1172 0 -443 -257 -848 -664 -1047 -276 -135 -605 -154 -892 -51
-160 57 -291 139 -418 263 -322 313 -434 785 -289 1219 58 175 148 318 288
459 107 108 183 164 304 224 210 106 459 143 686 105z m2591 -380 c172 -30
314 -91 450 -193 101 -76 159 -139 228 -244 133 -205 190 -428 166 -651 -44
-398 -305 -727 -682 -862 l-93 -33 -6 -963 c-3 -530 -7 -1395 -8 -1921 l-1
-958 -141 0 -141 0 -80 -75 c-99 -93 -220 -174 -318 -214 l-75 -29 -38 -129
c-57 -188 -67 -214 -94 -224 -14 -5 -91 -9 -173 -9 -180 0 -163 -15 -225 196
-23 80 -49 151 -56 158 -13 12 -189 95 -251 117 -23 9 -43 0 -182 -80 -85 -50
-158 -91 -162 -91 -4 0 -53 46 -110 102 -76 74 -104 108 -104 126 0 14 22 59
48 101 27 42 66 108 87 146 l38 70 -37 95 c-21 52 -43 101 -50 108 -6 7 -95
37 -196 68 -102 30 -188 59 -193 63 -4 4 -6 79 -5 166 l3 159 80 18 c273 61
306 70 312 86 3 10 23 61 44 116 22 54 39 102 39 106 0 5 -39 66 -86 136 -72
107 -84 131 -76 149 5 11 57 65 115 118 l105 98 153 -76 153 -77 100 51 c56
27 114 53 129 57 37 9 46 23 126 215 l68 164 164 2 164 3 60 -181 60 -180 83
-33 c46 -19 106 -48 134 -65 28 -18 52 -30 53 -29 1 2 11 24 22 49 20 45 21
71 24 1162 2 613 2 1117 -1 1119 -3 3 -34 15 -70 27 -557 196 -840 765 -652
1311 152 442 641 733 1098 655z m-3348 -2280 c378 -154 735 -153 1136 6 114
45 138 47 305 18 521 -88 890 -334 1122 -747 l49 -87 0 -192 0 -193 -204 0
c-130 0 -215 -4 -237 -12 -53 -18 -201 -106 -236 -140 -40 -39 -68 -103 -83
-195 l-12 -73 -75 -41 c-85 -47 -78 -48 -180 25 -80 57 -145 73 -221 56 -53
-12 -61 -18 -239 -197 -101 -102 -191 -199 -200 -216 -12 -22 -18 -56 -18
-107 0 -72 2 -78 48 -155 l47 -80 -1132 -7 c-623 -5 -1160 -5 -1194 -2 -106 9
-203 84 -241 187 -8 23 -12 171 -12 512 -1 476 -1 481 23 581 111 455 419 800
879 984 141 56 406 116 524 119 29 1 77 -13 151 -44z"/>
<path d="M7102 7469 c-185 -27 -338 -140 -422 -314 -48 -99 -64 -181 -57 -288
18 -280 249 -506 537 -524 274 -18 527 178 585 452 69 329 -143 626 -482 675
-77 11 -75 11 -161 -1z"/>
<path d="M6264 3320 c-235 -36 -438 -219 -499 -450 -32 -120 -9 -278 58 -405
40 -74 163 -201 237 -242 241 -136 515 -98 710 97 121 121 170 239 170 410 0
113 -16 179 -67 279 -109 215 -369 348 -609 311z"/>
</g>
</svg>
